<svg
   width="74.827873mm"
   height="61.414356mm"
   viewBox="0 0 74.827873 61.414356"
   version="1.1"
   id="svg1"
   xml:space="preserve"
   xmlns="http://www.w3.org/2000/svg"
   xmlns:svg="http://www.w3.org/2000/svg"><defs
     id="defs1" /><g
     id="layer1"
     transform="translate(-67.966051,-110.94539)"><path
       style="fill:#000000;stroke-width:11.5163"
       d="m 142.50944,111.28178 c 0.23839,0.23839 0.3167,0.48139 0.27294,0.83954 -0.0345,0.31555 -6.856,11.59035 -18.19218,30.0914 -9.97093,16.27299 -18.23721,29.7132 -18.36942,29.86717 -0.14856,0.17275 -0.46641,0.27985 -0.83033,0.27985 -0.36391,0 -0.68291,-0.10365 -0.83147,-0.27985 -0.13244,-0.15431 -1.5585,-2.43903 -3.16917,-5.07788 -2.906947,-4.76279 -4.882447,-7.98851 -13.271267,-21.67068 -2.39988,-3.91427 -5.53151,-9.02405 -6.95907,-11.35507 -1.42756,-2.33101 -3.87512,-6.32532 -5.43903,-8.87618 -1.5638,-2.55086 -3.94836,-6.44349 -5.29888,-8.65013 -1.54848,-2.53001 -2.45551,-4.16947 -2.45551,-4.43815 0,-0.23378 0.14396,-0.57005 0.32016,-0.74625 l 0.32015,-0.32016 h 36.784087 36.78421 z m -39.51864,2.06303 c 0,0.0921 3.4291,3.68603 7.62022,7.99278 l 7.62034,7.8305 0.58387,-0.46295 c 9.25323,-7.32863 19.13295,-15.24436 19.17291,-15.36136 0.0345,-0.0921 -6.36183,-0.15547 -17.47241,-0.15778 -11.7434,-0.003 -17.52493,0.0461 -17.52493,0.15778 z m -30.544097,-0.0345 c 0.003,0.13243 17.35955,11.60647 17.67303,11.68282 0.10364,0.023 0.23608,-0.0576 0.2833,-0.17965 0.0461,-0.12553 1.71236,-2.75574 3.69857,-5.84568 1.98622,-3.09005 3.61128,-5.65404 3.61128,-5.69792 0,-0.0461 -5.68559,-0.0806 -12.63453,-0.0806 -6.94905,0 -12.63338,0.0576 -12.63188,0.11977 z m 23.86684,6.62382 c -2.04518,3.18104 -3.69409,5.80836 -3.66403,5.83831 0.0461,0.0461 17.576057,2.67028 21.375747,3.20429 l 0.71862,0.10365 -2.15827,-2.25869 c -5.3036,-5.55005 -12.24805,-12.64029 -12.39396,-12.65377 -0.0921,-0.008 -1.833277,2.58772 -3.878457,5.76886 z m -22.54304,-2.6256 c 0.65067,1.18469 17.76677,28.97939 17.81525,28.9309 0.0345,-0.0345 -0.45374,-4.28844 -1.0929,-9.44578 l -1.16095,-9.37715 -7.4446,-4.89845 c -4.09462,-2.69413 -7.54997,-4.99543 -7.67884,-5.11393 -0.2499,-0.23033 -0.54817,-0.29482 -0.43877,-0.0921 z m 45.734787,14.07645 c -0.0461,0.12668 0.17505,2.75965 0.49635,5.85132 0.32131,3.09166 0.58388,5.81907 0.58273,6.06102 -0.001,0.24185 0.0576,0.43993 0.12898,0.43993 0.0691,0 1.57543,-2.35704 3.34111,-5.23773 1.76568,-2.8808 5.34126,-8.71473 7.94567,-12.96436 2.60441,-4.24974 4.73538,-7.79227 4.73538,-7.87231 0,-0.19923 -17.12082,13.43491 -17.23103,13.72225 z m -25.634697,-2.72142 c 0.0921,0.15432 3.42287,3.98637 7.402327,8.51642 l 7.23557,8.23646 4.95385,0.43071 c 2.72476,0.23723 4.98333,0.40077 5.01927,0.36506 0.10364,-0.10364 -1.41087,-14.20892 -1.53962,-14.32374 -0.0691,-0.0576 -5.11899,-0.83608 -11.2323,-1.7309 -6.113427,-0.89481 -11.223207,-1.65132 -11.355187,-1.68149 -0.57351,-0.13129 -0.65528,-0.10365 -0.48368,0.18771 z m -1.70557,2.39908 c 0.0461,0.32937 0.60806,4.77385 1.24111,9.87569 0.6334,5.10183 1.16614,9.29503 1.18503,9.31829 0.023,0.0345 9.308157,-3.43001 10.838557,-4.04268 0.15432,-0.0576 0.27985,-0.16583 0.27985,-0.23263 0,-0.0691 -2.88092,-3.41216 -6.401907,-7.43584 -3.52111,-4.02356 -6.52583,-7.48606 -6.67715,-7.69427 -0.39962,-0.55048 -0.56891,-0.47332 -0.46526,0.21075 z m 16.603507,18.79183 c -0.10365,1.07793 -0.51939,5.08226 -0.91209,8.89934 -0.39271,3.81708 -0.6668,6.98371 -0.60921,7.03692 0.0576,0.0576 0.13359,0.023 0.16813,-0.0806 0.0345,-0.0921 2.36349,-3.92821 5.17589,-8.51803 2.81239,-4.5897 5.11347,-8.41622 5.11347,-8.50329 0,-0.0921 -0.26949,-0.16353 -0.6,-0.17159 -0.32937,-0.007 -2.00315,-0.14165 -3.71839,-0.29942 -1.71523,-0.15778 -3.41158,-0.29597 -3.76963,-0.30749 l -0.65067,-0.023 z m -7.77684,0.58618 c -3.722757,1.40718 -5.432347,2.12672 -5.420837,2.28184 0.009,0.12438 1.79804,3.13762 3.97485,6.69581 4.781217,7.81484 4.908817,8.01776 4.990357,7.93623 0.0576,-0.0576 1.9732,-18.4065 1.9732,-18.85218 0,-0.16469 0.64837,-0.39271 -5.51757,1.9383 z"
       id="path1" /></g></svg>
